<?xml version="1.0" standalone="no"?>
<!DOCTYPE svg PUBLIC "-//W3C//DTD SVG 1.1//EN" "http://www.w3.org/Graphics/SVG/1.1/DTD/svg11.dtd" >
<svg xmlns="http://www.w3.org/2000/svg" xmlns:xlink="http://www.w3.org/1999/xlink" version="1.1">
<metadata>
Created by FontForge 20200306 at Mon Jan 10 11:22:16 2022
 By convertio
Copyright 2021, Kris Sowersby, Klim Type Foundry.
</metadata>
<defs>
<font id="TestDomaineText-Bold" horiz-adv-x="277" >
  <font-face 
    font-family="Test Domaine Text"
    font-weight="700"
    font-stretch="normal"
    units-per-em="1000"
    panose-1="2 10 8 6 8 5 5 6 2 4"
    ascent="780"
    descent="-220"
    x-height="493"
    cap-height="700"
    bbox="-138 -225 1051 756"
    underline-thickness="36"
    underline-position="-75"
    unicode-range="U+0020-007A"
  />
<missing-glyph horiz-adv-x="500" 
 />
    <glyph glyph-name=".notdef" horiz-adv-x="500" 
 />
    <glyph glyph-name="space" unicode=" " horiz-adv-x="200" 
 />
    <glyph glyph-name="comma" unicode="," 
d="M166 17c-11 -11 -29 -15 -48 -15c-39 0 -74 32 -74 77c0 51 39 86 88 86c67 0 111 -49 111 -132c0 -110 -72 -197 -214 -198v37c80 8 139 53 137 145z" />
    <glyph glyph-name="hyphenminus" unicode="-" horiz-adv-x="349" 
d="M50 249v73h249v-73h-249z" />
    <glyph glyph-name="period" unicode="." 
d="M232 86c0 -52 -40 -94 -93 -94s-93 42 -93 94c0 51 40 94 93 94s93 -43 93 -94z" />
    <glyph glyph-name="zero" unicode="0" horiz-adv-x="689" 
d="M643 350c0 -221 -120 -360 -299 -360s-298 139 -298 360s119 360 298 360s299 -139 299 -360zM471 350c0 194 -35 318 -127 318c-91 0 -126 -124 -126 -318s35 -318 126 -318c92 0 127 124 127 318z" />
    <glyph glyph-name="one" unicode="1" horiz-adv-x="424" 
d="M397 0h-370v14c76 29 110 33 110 84v492c0 55 -26 59 -111 96v14h261v-602c0 -51 35 -55 110 -84v-14z" />
    <glyph glyph-name="two" unicode="2" horiz-adv-x="609" 
d="M152 123l216 5c100 3 129 4 179 84h11l-22 -212h-524v6l173 185c97 104 182 207 182 341c0 81 -32 139 -101 139c-60 0 -93 -52 -93 -123c0 -51 16 -93 46 -114c-12 -11 -43 -16 -68 -16c-62 0 -113 44 -113 117c0 103 92 175 228 175c131 0 263 -57 263 -212
c0 -141 -139 -243 -377 -375z" />
    <glyph glyph-name="three" unicode="3" horiz-adv-x="626" 
d="M289 -10c-125 0 -249 56 -249 169c0 74 60 118 126 118c27 0 46 -7 60 -15c-27 -29 -42 -62 -42 -111c0 -80 43 -120 105 -120c77 0 121 64 121 160c0 112 -54 173 -148 173v28c86 4 133 45 133 144c0 78 -30 133 -98 133c-62 0 -96 -47 -96 -114c0 -48 14 -76 44 -95
c-14 -10 -36 -16 -60 -16c-62 0 -110 42 -110 111c0 90 93 155 222 155c137 0 253 -58 253 -175c0 -97 -85 -148 -183 -156v-2c120 -7 210 -71 210 -185c0 -136 -128 -202 -288 -202z" />
    <glyph glyph-name="four" unicode="4" horiz-adv-x="675" 
d="M337 234v355l-236 -355h236zM543 188h-56v-75c0 -66 10 -75 53 -104v-9h-256v9c43 29 53 38 53 104v75h-324l-3 5l348 508l129 -1v-466h56c60 0 66 10 96 53h9v-152h-9c-30 43 -36 53 -96 53z" />
    <glyph glyph-name="five" unicode="5" horiz-adv-x="613" 
d="M272 31c85 0 123 74 123 181c0 102 -38 171 -137 171c-60 0 -106 -24 -142 -55h-4l45 371c72 -9 160 -15 218 -15c76 0 124 5 164 44h3c0 -112 -36 -191 -159 -191c-68 0 -155 19 -198 37l-21 -178c32 25 93 46 165 46c127 0 237 -70 237 -215
c0 -165 -151 -237 -294 -237c-129 0 -244 56 -244 165c0 76 58 119 120 119c30 0 53 -8 66 -17c-23 -20 -45 -57 -45 -111c0 -76 35 -115 103 -115z" />
    <glyph glyph-name="six" unicode="6" horiz-adv-x="628" 
d="M361 669c-128 0 -162 -170 -162 -328c21 61 78 102 160 102c114 0 223 -70 223 -214c0 -149 -120 -239 -260 -239c-171 0 -276 143 -276 339c0 205 103 381 315 381c118 0 206 -45 206 -132c0 -59 -45 -88 -94 -88c-25 0 -52 10 -65 23c23 14 40 44 41 77
c0 48 -32 79 -88 79zM212 212c0 -114 34 -182 107 -182s109 68 109 182c0 115 -36 182 -109 182s-107 -67 -107 -182z" />
    <glyph glyph-name="seven" unicode="7" horiz-adv-x="561" 
d="M42 470v230h509v-4l-108 -180c-99 -164 -124 -325 -123 -503l-156 -23c35 205 121 355 223 509l41 63h-234c-83 0 -110 -19 -142 -92h-10z" />
    <glyph glyph-name="eight" unicode="8" horiz-adv-x="636" 
d="M411 414c121 -45 180 -107 180 -208c0 -139 -122 -216 -268 -216c-156 0 -277 63 -277 177c0 85 73 141 158 158c-69 31 -123 91 -123 178c0 132 106 207 233 207c126 0 229 -61 229 -163c0 -77 -72 -124 -132 -133zM208 566c0 -62 42 -91 115 -119l64 -25
c29 25 51 70 51 124c0 72 -46 121 -122 121c-69 0 -108 -41 -108 -101zM344 270l-120 46c-35 -22 -60 -76 -60 -131c0 -91 66 -152 158 -152c75 0 131 42 131 114c0 64 -43 98 -109 123z" />
    <glyph glyph-name="nine" unicode="9" horiz-adv-x="628" 
d="M416 488c0 114 -34 182 -107 182s-109 -68 -109 -182c0 -115 36 -182 109 -182s107 67 107 182zM267 31c128 0 162 170 162 328c-21 -61 -78 -102 -160 -102c-114 0 -223 70 -223 214c0 149 120 239 260 239c171 0 276 -143 276 -339c0 -205 -103 -381 -315 -381
c-118 0 -206 45 -206 132c0 59 45 88 94 88c25 0 52 -10 65 -23c-23 -14 -40 -44 -41 -77c0 -48 32 -79 88 -79z" />
    <glyph glyph-name="A" unicode="A" horiz-adv-x="779" 
d="M333 494l-117 -249h235zM203 9v-9h-188v9c41 33 54 49 84 109l288 600h5l289 -600c29 -60 41 -76 82 -109v-9h-281v9c34 21 46 34 46 57c0 11 -3 23 -11 39l-44 94h-278l-42 -89c-8 -16 -11 -28 -11 -39c0 -20 17 -31 61 -62z" />
    <glyph glyph-name="B" unicode="B" horiz-adv-x="711" 
d="M406 0h-362v9c47 32 62 43 62 109v464c0 66 -15 77 -62 109v9h346c144 0 251 -49 251 -173c0 -102 -92 -158 -182 -165v-2c103 -5 211 -51 211 -171c0 -136 -111 -189 -264 -189zM263 655v-273h73c87 0 148 39 148 137c0 94 -58 136 -147 136h-74zM344 339h-81v-294h84
c99 0 165 45 165 147s-67 147 -168 147z" />
    <glyph glyph-name="C" unicode="C" horiz-adv-x="723" 
d="M429 662c-127 0 -208 -127 -208 -294c0 -187 98 -292 235 -292c83 0 162 31 218 138l15 -6c-35 -133 -138 -218 -288 -218c-207 0 -357 142 -357 360c0 210 166 360 366 360c85 0 146 -24 188 -57l56 57h9v-237h-13c-62 107 -121 189 -221 189z" />
    <glyph glyph-name="D" unicode="D" horiz-adv-x="798" 
d="M43 0v9c47 32 63 43 63 109v464c0 66 -16 77 -63 109v9h308c249 0 403 -121 403 -347c0 -239 -161 -353 -385 -353h-326zM586 353c0 193 -90 300 -246 300h-77v-606h88c145 0 235 88 235 306z" />
    <glyph glyph-name="E" unicode="E" horiz-adv-x="695" 
d="M520 479v-236h-12c-38 90 -54 96 -135 96h-110v-294h173c105 0 144 51 210 153h11l-32 -198h-582v9c47 32 63 43 63 109v464c0 66 -16 77 -63 109v9h490c30 0 45 3 60 6l34 -186h-11c-66 78 -94 135 -208 135h-145v-272h110c81 0 97 5 135 96h12z" />
    <glyph glyph-name="F" unicode="F" horiz-adv-x="660" 
d="M346 0h-303v9c47 32 63 43 63 109v464c0 66 -16 77 -63 109v9h489c30 0 45 3 60 6l34 -186h-11c-66 78 -94 135 -208 135h-144v-291h109c81 0 98 5 136 96h11v-236h-11c-38 90 -55 96 -136 96h-109v-202c0 -62 28 -78 83 -109v-9z" />
    <glyph glyph-name="G" unicode="G" horiz-adv-x="808" 
d="M560 112v109c0 66 -16 77 -63 109v9h286v-9c-47 -32 -63 -43 -63 -109v-229h-20l-95 90c-44 -56 -118 -92 -209 -92c-200 0 -352 138 -352 354c0 219 168 366 376 366c85 0 147 -24 190 -57l56 57h9v-236h-13c-65 107 -122 188 -224 188c-128 0 -217 -128 -217 -309
c0 -171 80 -297 216 -297c53 0 92 19 123 56z" />
    <glyph glyph-name="H" unicode="H" horiz-adv-x="864" 
d="M43 0v9c47 32 63 43 63 109v464c0 66 -16 77 -63 109v9h282v-9c-47 -32 -62 -43 -62 -109v-198h338v198c0 66 -16 77 -63 109v9h282v-9c-47 -32 -62 -43 -62 -109v-464c0 -66 15 -77 62 -109v-9h-282v9c47 32 63 43 63 109v220h-338v-220c0 -66 15 -77 62 -109v-9h-282z
" />
    <glyph glyph-name="I" unicode="I" horiz-adv-x="369" 
d="M106 582c0 66 -16 77 -63 109v9h282v-9c-47 -32 -62 -43 -62 -109v-464c0 -66 15 -77 62 -109v-9h-282v9c47 32 63 43 63 109v464z" />
    <glyph glyph-name="J" unicode="J" horiz-adv-x="620" 
d="M366 197v385c0 66 -15 77 -62 109v9h282v-9c-47 -32 -63 -43 -63 -109v-368c0 -162 -128 -224 -267 -224c-125 0 -241 58 -241 169c0 74 57 115 128 115c25 0 46 -6 60 -14c-30 -24 -49 -62 -49 -113c0 -66 40 -114 102 -114c78 0 110 61 110 164z" />
    <glyph glyph-name="K" unicode="K" horiz-adv-x="793" 
d="M325 0h-282v9c47 32 63 43 63 109v464c0 66 -16 77 -63 109v9h282v-9c-47 -32 -62 -43 -62 -109v-252l293 281c12 12 15 20 15 32c0 15 -10 27 -35 48v9h214v-9c-65 -31 -103 -59 -149 -103l-152 -145l228 -331c34 -48 62 -75 114 -100v-12h-287v9c17 15 23 21 23 37
s-7 29 -27 59l-163 235l-74 -72v-150c0 -66 15 -77 62 -109v-9z" />
    <glyph glyph-name="L" unicode="L" horiz-adv-x="677" 
d="M263 582v-537h150c101 0 134 56 223 188h10l-36 -233h-567v9c47 32 63 43 63 109v464c0 66 -16 77 -63 109v9h282v-9c-47 -32 -62 -43 -62 -109z" />
    <glyph glyph-name="M" unicode="M" horiz-adv-x="958" 
d="M500 252l180 448h235v-9c-47 -32 -62 -43 -62 -109v-464c0 -66 15 -77 62 -109v-9h-279v9c47 32 63 43 63 109v496l-262 -624h-4l-271 624v-492c0 -66 28 -81 76 -113v-9h-209v9c48 32 77 47 77 113v460c0 66 -16 77 -63 109v9h257z" />
    <glyph glyph-name="N" unicode="N" horiz-adv-x="787" 
d="M630 269v309c0 66 -30 81 -80 113v9h212v-9c-49 -32 -76 -47 -76 -113v-582h-41l-483 581v-455c0 -66 31 -81 79 -113v-9h-212v9c49 32 77 47 77 113v460c0 66 -16 77 -63 109v9h228z" />
    <glyph glyph-name="O" unicode="O" horiz-adv-x="817" 
d="M44 350c0 210 161 360 364 360s365 -150 365 -360s-162 -360 -365 -360s-364 150 -364 360zM596 350c0 198 -59 311 -188 311c-128 0 -187 -113 -187 -311s59 -311 187 -311c129 0 188 113 188 311z" />
    <glyph glyph-name="P" unicode="P" horiz-adv-x="699" 
d="M395 272h-132v-154c0 -62 28 -78 83 -109v-9h-303v9c47 32 63 43 63 109v464c0 66 -16 77 -63 109v9h352c163 0 278 -72 278 -214s-116 -214 -278 -214zM263 317h71c120 0 178 55 178 169s-58 169 -178 169h-71v-338z" />
    <glyph glyph-name="Q" unicode="Q" horiz-adv-x="817" 
d="M611 -143c-80 0 -117 65 -144 137c-19 -3 -39 -4 -59 -4c-203 0 -364 150 -364 360s161 360 364 360s365 -150 365 -360c0 -150 -83 -269 -204 -325c25 -41 53 -72 96 -72c25 0 47 8 67 38h9c-10 -87 -56 -134 -130 -134zM382 238c76 0 115 -72 150 -144
c44 52 64 139 64 256c0 198 -59 311 -188 311c-128 0 -187 -113 -187 -311c0 -98 14 -175 45 -228c10 64 53 116 116 116zM408 39c15 0 29 2 42 5c-23 73 -44 140 -95 140c-33 0 -60 -34 -67 -94c30 -33 70 -51 120 -51z" />
    <glyph glyph-name="R" unicode="R" horiz-adv-x="767" 
d="M263 657v-300h98c97 0 155 48 155 150c0 93 -55 150 -155 150h-98zM263 314v-196c0 -66 15 -77 62 -109v-9h-282v9c47 32 63 43 63 109v464c0 66 -16 77 -63 109v9h374c144 0 265 -53 265 -188c0 -118 -105 -173 -222 -175v-2c88 -7 143 -45 172 -126l31 -84
c25 -72 45 -86 97 -113v-12h-211c-21 38 -31 65 -46 108l-38 113c-22 64 -48 93 -119 93h-83z" />
    <glyph glyph-name="S" unicode="S" horiz-adv-x="642" 
d="M321 665c-69 0 -119 -42 -119 -103c0 -63 34 -93 111 -117l95 -29c110 -35 178 -87 178 -205c0 -141 -120 -221 -266 -221c-79 0 -158 36 -195 62l-44 -62h-15l-14 240h19c72 -115 142 -189 248 -189c83 0 131 41 131 113c0 64 -38 96 -108 117l-93 29
c-122 39 -185 94 -185 203c0 125 101 207 257 207c74 0 132 -27 172 -50l43 50h13l3 -214h-13c-68 104 -121 169 -218 169z" />
    <glyph glyph-name="T" unicode="T" horiz-adv-x="783" 
d="M118 700h548c30 0 45 3 60 6l31 -220h-12c-62 90 -100 170 -201 170h-74v-536c0 -66 20 -80 69 -111v-9h-294v9c49 31 68 45 68 111v536h-74c-101 0 -139 -80 -200 -170h-12l31 220c15 -3 30 -6 60 -6z" />
    <glyph glyph-name="U" unicode="U" horiz-adv-x="779" 
d="M626 578c0 66 -31 81 -80 113v9h212v-9c-49 -32 -76 -47 -76 -113v-306c0 -189 -106 -282 -280 -282c-183 0 -305 96 -305 280v312c0 66 -15 77 -62 109v9h282v-9c-47 -32 -63 -43 -63 -109v-302c0 -146 69 -215 184 -215c110 0 188 61 188 216v297z" />
    <glyph glyph-name="V" unicode="V" horiz-adv-x="775" 
d="M441 213l175 374c7 17 10 26 10 38c0 20 -22 36 -63 66v9h199v-9c-41 -33 -56 -49 -86 -109l-286 -592h-5l-286 592c-30 60 -41 76 -83 109v9h282v-9c-34 -21 -46 -34 -46 -57c0 -11 3 -23 10 -39z" />
    <glyph glyph-name="W" unicode="W" horiz-adv-x="1059" 
d="M723 -10l-195 488l-188 -488h-7l-242 592c-23 56 -37 76 -75 109v9h265v-9c-30 -21 -42 -34 -42 -57c0 -11 4 -23 10 -39l140 -355l113 305l-15 37c-21 51 -37 76 -74 109v9h262v-9c-30 -21 -43 -34 -43 -57c0 -11 3 -24 9 -40l133 -357l134 348c6 16 8 27 8 36
c0 25 -29 47 -61 70v9h196v-9c-38 -33 -63 -55 -86 -112l-235 -589h-7z" />
    <glyph glyph-name="X" unicode="X" horiz-adv-x="787" 
d="M213 9v-9h-199v9c48 29 75 50 122 111l177 225l-180 244c-40 55 -61 74 -103 102v9h283v-9c-15 -19 -21 -30 -21 -47c0 -16 6 -30 21 -49l112 -152l116 149c13 17 19 29 19 46s-14 30 -39 53v9h192v-9c-45 -30 -73 -53 -111 -102l-146 -188l214 -290
c40 -54 61 -74 103 -102v-9h-283v9c15 19 21 30 21 47c0 16 -7 31 -21 49l-147 199l-145 -188c-19 -25 -24 -36 -24 -51c0 -17 15 -32 39 -56z" />
    <glyph glyph-name="Y" unicode="Y" horiz-adv-x="749" 
d="M435 360l146 229c10 15 15 30 15 40c0 21 -23 39 -53 62v9h192v-9c-41 -33 -61 -56 -96 -109l-186 -286v-178c0 -66 15 -77 64 -109v-9h-286v9c49 32 65 43 65 109v178l-187 286c-33 51 -55 76 -95 109v9h292v-9c-28 -22 -38 -34 -38 -55c0 -12 6 -27 15 -42z" />
    <glyph glyph-name="Z" unicode="Z" horiz-adv-x="737" 
d="M653 0h-615v4l425 651h-170c-107 0 -140 -58 -217 -161h-11l31 212c15 -3 30 -6 60 -6h517v-4l-419 -651h190c105 0 146 55 230 175h11z" />
    <glyph glyph-name="a" unicode="a" horiz-adv-x="577" 
d="M348 256l-55 -12c-74 -17 -108 -43 -108 -104c0 -47 23 -75 67 -75c56 0 96 47 96 132v59zM581 25v-11c-22 -8 -64 -22 -110 -22c-74 0 -110 26 -120 103c-21 -65 -83 -105 -167 -105c-79 0 -147 41 -147 126c0 110 118 142 233 163l78 14v61c0 66 -18 107 -86 107
c-49 0 -76 -24 -76 -68c0 -33 14 -46 29 -55c-12 -17 -48 -27 -75 -27c-48 0 -79 27 -79 70c0 71 80 122 213 122c149 0 224 -54 224 -171c0 -61 -3 -135 -3 -207c0 -67 21 -87 86 -100z" />
    <glyph glyph-name="b" unicode="b" horiz-adv-x="661" 
d="M230 268v-70c0 -88 57 -151 120 -151c74 0 117 69 117 208c0 109 -41 176 -117 176c-73 0 -120 -72 -120 -163zM207 83c-32 -54 -80 -87 -128 -93h-9c10 61 10 134 10 222v425c0 63 -22 77 -65 103v9h215v-373c23 73 88 127 182 127c117 0 215 -80 215 -248
c0 -166 -104 -265 -245 -265c-85 0 -149 42 -175 93z" />
    <glyph glyph-name="c" unicode="c" horiz-adv-x="530" 
d="M307 463c-76 0 -116 -93 -116 -199c0 -123 55 -199 148 -199c59 0 106 23 139 94l22 -7c-28 -104 -106 -162 -217 -162c-138 0 -249 89 -249 253c0 154 115 260 270 260c100 0 188 -45 188 -125c0 -58 -45 -79 -83 -79c-24 0 -50 9 -56 22c14 15 26 33 26 67
c0 45 -25 75 -72 75z" />
    <glyph glyph-name="d" unicode="d" horiz-adv-x="668" 
d="M431 226v69c0 88 -57 151 -119 151c-75 0 -118 -68 -118 -201c0 -116 41 -182 117 -182c73 0 120 72 120 163zM432 0l-1 117c-23 -72 -88 -127 -181 -127c-117 0 -216 80 -216 254c0 160 104 259 232 259c87 0 140 -42 165 -94v228c0 63 -22 77 -65 103v9h215v-636
c0 -66 10 -75 53 -104v-9h-202z" />
    <glyph glyph-name="e" unicode="e" horiz-adv-x="557" 
d="M292 503c152 0 233 -93 233 -248h-334c0 -113 57 -191 152 -191c67 0 116 25 151 95l21 -7c-28 -104 -109 -162 -224 -162c-142 0 -257 87 -257 255c0 157 115 258 258 258zM193 300h182c-1 81 -16 160 -84 160c-64 0 -92 -69 -98 -160z" />
    <glyph glyph-name="f" unicode="f" horiz-adv-x="394" 
d="M239 434v-319c0 -64 31 -74 95 -104v-11h-298v9c43 29 54 38 54 104v321h-70v35l70 22v63c0 124 86 202 224 202c92 0 166 -33 166 -106c0 -51 -41 -72 -87 -72c-18 0 -36 4 -44 7c12 13 20 37 20 61c0 35 -16 71 -57 71c-51 0 -73 -44 -73 -117v-115h145l-5 -51h-140z
" />
    <glyph glyph-name="g" unicode="g" horiz-adv-x="606" 
d="M345 341c0 88 -22 125 -69 125s-68 -37 -68 -125c0 -89 21 -124 68 -124s69 35 69 124zM566 -41c0 -130 -143 -184 -289 -184c-133 0 -261 31 -261 118c0 49 44 83 131 89c-58 13 -97 49 -97 110c0 58 39 96 93 116c-53 29 -82 78 -82 133c0 90 77 162 215 162
c61 0 111 -14 147 -38c25 36 62 72 113 72c46 0 76 -28 76 -70c0 -46 -38 -67 -72 -67c0 34 -12 63 -49 63c-18 0 -30 -5 -44 -16c29 -29 45 -66 45 -106c0 -91 -77 -163 -216 -163c-41 0 -77 6 -107 18c-20 -10 -35 -27 -35 -45c0 -24 17 -41 56 -41h182
c117 0 194 -53 194 -151zM351 -28h-168c-39 -14 -55 -35 -55 -68c0 -61 69 -88 149 -88c97 0 172 34 172 90c0 46 -31 66 -98 66z" />
    <glyph glyph-name="h" unicode="h" horiz-adv-x="646" 
d="M566 329v-216c0 -66 11 -75 54 -104v-9h-257v9c43 29 54 38 54 104v198c0 55 -23 96 -80 96s-103 -45 -103 -144v-150c0 -66 11 -75 54 -104v-9h-257v9c43 29 54 38 54 104v524c0 63 -23 77 -65 103v9h214v-381c31 88 92 135 171 135c112 0 161 -75 161 -174z" />
    <glyph glyph-name="i" unicode="i" horiz-adv-x="330" 
d="M73 655c0 49 38 87 88 87c51 0 89 -38 89 -87s-38 -87 -89 -87c-50 0 -88 38 -88 87zM239 493v-380c0 -66 11 -75 54 -104v-9h-257v9c43 29 54 38 54 104v268c0 63 -21 76 -62 103v9h211z" />
    <glyph glyph-name="j" unicode="j" horiz-adv-x="308" 
d="M68 655c0 49 38 87 88 87s89 -38 89 -87s-39 -87 -89 -87s-88 38 -88 87zM84 -85v466c0 63 -20 76 -62 103v9h212v-524c0 -124 -78 -194 -208 -194c-94 0 -164 31 -164 97c0 53 44 74 91 74c18 0 35 -4 42 -8c-11 -12 -19 -34 -19 -58c0 -33 15 -66 52 -66
c43 0 56 39 56 101z" />
    <glyph glyph-name="k" unicode="k" horiz-adv-x="634" 
d="M288 9v-9h-257v9c43 29 54 38 54 104v524c0 63 -23 77 -65 103v9h214v-465h15c22 0 38 5 58 22l116 104c15 13 21 21 21 35c0 13 -10 23 -27 39v9h203v-9c-57 -18 -94 -43 -159 -100l-70 -63l138 -208c27 -41 64 -80 110 -104v-9h-228c1 19 -3 41 -22 70l-98 152
c-10 14 -21 21 -38 21h-19v-130c0 -66 11 -75 54 -104z" />
    <glyph glyph-name="l" unicode="l" horiz-adv-x="321" 
d="M234 749v-636c0 -66 11 -75 54 -104v-9h-257v9c43 29 54 38 54 104v524c0 63 -23 77 -65 103v9h214z" />
    <glyph glyph-name="m" unicode="m" horiz-adv-x="952" 
d="M554 367c28 85 88 136 171 136c101 0 147 -75 147 -173v-217c0 -66 10 -75 53 -104v-9h-256v9c43 29 53 38 53 104v194c0 58 -18 98 -71 98c-54 0 -95 -43 -95 -142v-150c0 -66 10 -75 53 -104v-9h-256v9c43 29 53 38 53 104v194c0 58 -19 98 -71 98
c-54 0 -96 -43 -96 -142v-150c0 -66 11 -75 54 -104v-9h-257v9c43 29 54 38 54 104v268c0 63 -21 76 -62 103v9h207l4 -125c29 84 86 135 170 135c89 0 133 -56 145 -136z" />
    <glyph glyph-name="n" unicode="n" horiz-adv-x="651" 
d="M571 329v-216c0 -66 11 -75 54 -104v-9h-257v9c43 29 54 38 54 104v198c0 55 -23 96 -80 96s-103 -45 -103 -144v-150c0 -66 11 -75 54 -104v-9h-257v9c43 29 54 38 54 104v268c0 63 -21 76 -62 103v9h207l4 -125c31 88 92 135 171 135c112 0 161 -75 161 -174z" />
    <glyph glyph-name="o" unicode="o" horiz-adv-x="599" 
d="M564 247c0 -154 -118 -257 -265 -257c-146 0 -265 103 -265 257c0 153 119 256 265 256c147 0 265 -103 265 -256zM405 247c0 144 -30 213 -106 213c-75 0 -105 -69 -105 -213c0 -145 30 -214 105 -214c76 0 106 69 106 214z" />
    <glyph glyph-name="p" unicode="p" horiz-adv-x="663" 
d="M232 268v-70c0 -88 56 -151 119 -151c75 0 118 69 118 208c0 109 -41 176 -117 176c-73 0 -120 -72 -120 -163zM232 84v-186c0 -66 19 -75 73 -103v-10h-276v9c43 29 53 38 53 104v483c0 63 -21 76 -62 103v9h208l4 -117c23 73 87 127 181 127c117 0 215 -80 215 -248
c0 -166 -103 -265 -231 -265c-87 0 -140 42 -165 94z" />
    <glyph glyph-name="q" unicode="q" horiz-adv-x="657" 
d="M453 407c32 55 81 90 129 96h9c-10 -60 -10 -134 -10 -222v-383c0 -66 10 -75 53 -104v-9h-276v10c53 29 73 37 73 103v219c-23 -72 -88 -127 -181 -127c-117 0 -216 80 -216 254c0 160 104 259 241 259c87 0 151 -45 178 -96zM431 226v69c0 88 -57 151 -119 151
c-75 0 -118 -68 -118 -201c0 -116 41 -182 117 -182c73 0 120 72 120 163z" />
    <glyph glyph-name="r" unicode="r" horiz-adv-x="505" 
d="M239 236v-121c0 -64 30 -74 94 -104v-11h-297v9c43 29 54 38 54 104v268c0 63 -21 76 -62 103v9h207l4 -150c22 86 66 160 155 160c59 0 94 -40 94 -92c0 -58 -36 -92 -79 -102c0 45 -18 81 -67 81c-56 0 -103 -58 -103 -154z" />
    <glyph glyph-name="s" unicode="s" horiz-adv-x="510" 
d="M245 457c-41 0 -73 -20 -73 -56c0 -42 37 -57 110 -76c125 -33 183 -72 183 -169c0 -98 -86 -166 -208 -166c-66 0 -116 24 -148 41l-39 -40h-10l-11 188h14c65 -93 120 -142 193 -142c51 0 93 22 93 67c0 46 -41 59 -105 73c-144 35 -186 83 -186 169
c0 94 81 157 185 157c59 0 98 -17 136 -35l43 35h9v-170h-13c-55 82 -106 124 -173 124z" />
    <glyph glyph-name="t" unicode="t" horiz-adv-x="443" 
d="M11 434v34c84 17 170 87 194 188h28v-171h167l-5 -51h-162v-273c0 -61 23 -88 73 -88c47 0 79 30 95 98l22 -6c-9 -98 -64 -175 -182 -175c-93 0 -158 49 -157 152l1 292h-74z" />
    <glyph glyph-name="u" unicode="u" horiz-adv-x="643" 
d="M229 493v-311c0 -55 21 -97 78 -97s100 47 100 145v151c0 63 -20 76 -62 103v9h212v-380c0 -66 10 -75 53 -104v-9h-203v126c-30 -88 -86 -136 -171 -136c-105 0 -156 73 -156 172v219c0 63 -21 76 -62 103v9h211z" />
    <glyph glyph-name="v" unicode="v" horiz-adv-x="558" 
d="M332 187l91 188c10 23 15 38 15 51c0 21 -23 39 -51 58v9h171v-9c-33 -28 -51 -50 -81 -109l-193 -385h-10l-194 385c-29 59 -47 81 -81 109v9h249v-9c-22 -19 -31 -28 -31 -44c0 -14 6 -31 17 -55z" />
    <glyph glyph-name="w" unicode="w" horiz-adv-x="790" 
d="M532 -10l-133 327l-143 -327h-10l-170 385c-26 61 -43 80 -77 109v9h240v-9c-22 -17 -29 -27 -29 -44c0 -14 6 -32 16 -55l79 -187l73 172l-4 9c-24 58 -34 77 -70 105v9h227v-9c-23 -19 -31 -28 -31 -44c0 -14 7 -32 16 -55l71 -187l73 173c10 23 15 37 15 50
c0 22 -19 39 -54 63v9h170v-9c-34 -29 -50 -48 -77 -109l-172 -385h-10z" />
    <glyph glyph-name="x" unicode="x" horiz-adv-x="588" 
d="M188 9v-9h-188v9c53 22 92 59 131 109l91 119l-96 136c-41 60 -63 81 -113 111v9h262v-9c-13 -9 -21 -20 -21 -32c0 -15 13 -35 37 -68l44 -62l35 49c23 32 37 48 37 68c0 18 -14 29 -33 45v9h185v-9c-53 -22 -92 -59 -131 -109l-68 -90l115 -165c40 -57 62 -82 113 -111
v-9h-261v9c12 12 19 23 19 37c0 17 -12 30 -35 64l-63 90l-57 -78c-24 -34 -33 -48 -33 -68c0 -14 8 -24 30 -45z" />
    <glyph glyph-name="y" unicode="y" horiz-adv-x="554" 
d="M261 -6l-181 381c-28 59 -47 80 -81 109v9h249v-9c-22 -18 -31 -27 -31 -44c0 -14 7 -31 17 -55l101 -227l86 212c9 24 16 43 16 56c0 21 -18 33 -52 58v9h170v-9c-34 -28 -52 -48 -78 -109l-205 -473c-36 -82 -67 -127 -138 -127c-58 0 -100 34 -100 89
c0 50 43 82 88 83c-5 -9 -7 -23 -7 -34c0 -27 16 -47 44 -47c37 0 57 25 78 72z" />
    <glyph glyph-name="z" unicode="z" horiz-adv-x="554" 
d="M34 7l279 443h-80c-80 0 -107 -30 -171 -127l-9 1l14 176c16 -4 32 -7 63 -7h373v-7l-277 -442h88c87 0 111 22 189 136l10 -1l-29 -179h-450v7z" />
    </font>
</defs>
</svg>
