<svg width="86" height="86" viewBox="0 0 86 86" fill="none" xmlns="http://www.w3.org/2000/svg">
<g clip-path="url(#clip0_3687_3255)">
<path d="M75 0C81.0751 6.44258e-08 86 4.92487 86 11V75C86 81.0751 81.0751 86 75 86H11C4.92487 86 6.44277e-08 81.0751 0 75V11C6.44277e-08 4.92487 4.92487 6.44258e-08 11 0H75ZM16 16C11.0294 16 7 20.0294 7 25V61C7 65.9706 11.0294 70 16 70H70C74.9706 70 79 65.9706 79 61V25C79 20.0294 74.9706 16 70 16H16ZM73 61C73 62.6569 71.6569 64 70 64H16C14.3431 64 13 62.6569 13 61V26.1318L41.249 46.4365L43 47.6943L44.751 46.4365L73 26.1318V61ZM43 40.3047L17.5322 22H68.4678L43 40.3047Z" fill="#DD2A7E"/>
</g>
<defs>
<clipPath id="clip0_3687_3255">
<rect width="86" height="86" fill="white"/>
</clipPath>
</defs>
</svg>
