<svg width="86" height="86" viewBox="0 0 86 86" fill="none" xmlns="http://www.w3.org/2000/svg">
<g clip-path="url(#clip0_3687_3251)">
<path d="M0 10.8466V75.1534C0 81.2234 4.77663 86 10.8466 86H75.1534C78.1243 86 80.9631 84.5786 82.7729 82.7729C84.7108 80.835 86 78.3805 86 75.1534V10.8466C86 4.77663 81.2234 0 75.1534 0H10.8466C7.61947 0 5.16504 1.29333 3.22712 3.22712C1.41729 5.03695 0 7.87565 0 10.8466ZM11.6234 19.3668C11.6234 15.2348 14.9828 11.6193 19.1148 11.6193C23.3749 11.6193 26.8623 15.2348 26.8623 19.3668C26.8623 23.627 23.3749 26.9863 19.1148 26.9863C14.9828 26.9863 11.6234 23.627 11.6234 19.3668ZM32.4117 72.4387V33.0563C32.4117 32.1513 33.3166 31.3787 33.9612 31.3787H44.9359C46.4854 31.3787 46.4854 33.1885 46.4854 34.3496C49.5844 31.2506 53.5883 30.4737 57.7204 30.4737C67.7943 30.4737 74.2485 35.2504 74.2485 45.8408V72.4428C74.2485 73.3477 73.4717 74.1204 72.699 74.1204H61.3359C60.431 74.1204 59.7864 73.2155 59.7864 72.4428V48.4233C59.7864 44.4194 58.6253 42.2252 54.1048 42.2252C48.4233 42.2252 47.0019 45.9689 47.0019 51.0058V72.4428C47.0019 73.3477 46.097 74.1204 45.192 74.1204H33.957C33.3125 74.1204 32.4075 73.2155 32.4075 72.4428L32.4117 72.4387ZM11.8796 72.4387V33.0563C11.8796 32.1513 12.7845 31.3787 13.4291 31.3787H24.6641C25.6971 31.3787 26.3417 32.0233 26.3417 33.0563V72.4387C26.3417 73.3436 25.5649 74.1163 24.6641 74.1163H13.4291C12.6523 74.1163 11.8796 73.2114 11.8796 72.4387Z" fill="#DD2A7E"/>
</g>
<defs>
<clipPath id="clip0_3687_3251">
<rect width="86" height="86" fill="white"/>
</clipPath>
</defs>
</svg>
