<?xml version="1.0" encoding="utf-8"?>
<!-- Generator: Adobe Illustrator 23.0.3, SVG Export Plug-In . SVG Version: 6.00 Build 0)  -->
<svg version="1.1" id="Layer_1" xmlns="http://www.w3.org/2000/svg" xmlns:xlink="http://www.w3.org/1999/xlink" x="0px" y="0px"
	 viewBox="0 0 86 86" style="enable-background:new 0 0 86 86;" xml:space="preserve">
<style type="text/css">
	.st0{fill:#DD2A7E;}
</style>
<path class="st0" d="M82.7,61.1c-0.2-4.8-0.7-9.6-0.7-14.4c-0.1-11.5-0.1-23,0-34.4c0-4.4-1.5-7.2-6.4-7.8C57.7,2.2,40,0.5,22,3
	C10.4,4.6,5.4,8.7,3.8,20C3,25.4,3.6,30.7,3.3,36c-0.6,9.5,0.8,18.9,1.1,28.4c0.1,2.9,1.1,5.9,2.3,8.6c2.2,5.2,5.7,8.4,12,8.8
	c15.8,1,31.7,0.8,47.6,2.3c11.2,1.1,15.3-3.4,16.4-14.5C83,66.7,82.8,63.9,82.7,61.1z M66.5,46.7c-4.7,16.1-17,25.2-33.3,24.3
	c-7.7-0.4-14.1-4.1-20.1-10.8c8.2,2.2,14.7,1.4,21.5-4.7C26,58,20.7,55.2,16.8,48.6c2.2-0.1,4,1.2,6.6-0.1c-4.3-2.2-7.5-5.2-8.9-9.8
	c-1.2-4.1-1.1-4.3,3.7-3.7c-2.2-4.7-2.9-9-1.1-13.4c1.8-0.2,2,1.4,2.8,2.4c5.3,6.8,12.9,7.6,20.6,7.9c1.7,0.1,1.3-1.5,1.5-2.5
	c1.1-6.2,5-10.4,10.9-11.7c5.3-1.2,10,1.4,13.4,5.8c1.5,1.9,1.5,1.8,6.8-0.8c0.9,2.6-1.9,3.5-2.4,5.3c1.1,1.4,3-0.5,4,1.1
	C67.8,33,68.3,40.4,66.5,46.7z"/>
</svg>
