<svg width="86" height="86" viewBox="0 0 86 86" fill="none" xmlns="http://www.w3.org/2000/svg">
<g clip-path="url(#clip0_3687_3238)">
<path d="M75 0C81.0751 6.44258e-08 86 4.92487 86 11V75C86 81.0751 81.0751 86 75 86H11C4.92487 86 6.44277e-08 81.0751 0 75V11C6.44277e-08 4.92487 4.92487 6.44258e-08 11 0H75ZM74 23.373C74 13.8217 65.6904 16.8228 60.5615 20.7021C53.4532 26.0785 45.8073 36.9803 43 42.8301C40.1929 36.9798 32.5466 26.0786 25.4385 20.7021C20.3098 16.8228 12 13.8217 12 23.373C12.0002 25.2822 13.086 39.3976 13.7227 41.6895C15.9356 49.657 23.9994 51.689 31.1729 50.459C18.6338 52.6087 15.4442 59.7316 22.333 66.8535C35.4167 80.3797 41.1375 63.4595 42.6035 59.124C42.8722 58.3295 42.9981 57.9578 43 58.2734C43.0019 57.9578 43.1278 58.3295 43.3965 59.124C44.8631 63.4595 50.5841 80.3793 63.667 66.8535C70.5557 59.7316 67.366 52.6091 54.8271 50.459C62.0003 51.689 70.0641 49.657 72.2773 41.6895C72.914 39.3978 73.9998 25.2824 74 23.373Z" fill="#DD2A7E"/>
</g>
<defs>
<clipPath id="clip0_3687_3238">
<rect width="86" height="86" fill="white"/>
</clipPath>
</defs>
</svg>
