<?xml version="1.0" encoding="utf-8"?>
<!-- Generator: Adobe Illustrator 23.0.3, SVG Export Plug-In . SVG Version: 6.00 Build 0)  -->
<svg version="1.1" id="Layer_1" xmlns="http://www.w3.org/2000/svg" xmlns:xlink="http://www.w3.org/1999/xlink" x="0px" y="0px"
	 viewBox="0 0 86 85" style="enable-background:new 0 0 86 85;" xml:space="preserve">
<g>
	<path d="M76.9,4.8C66.7,18,57.3,31.5,48.2,45.3c-2.3,3.5-6.6,3.4-9.4,0.5C28,34.6,19.6,21.5,10.6,8.9c-0.8-1.1-2.3-2.3-1.4-4
		c0.9-1.7,2.7-1,4.1-1c12,0,24,0.1,35.9-0.1C56.1,3.7,63,2.6,70,3C72.3,3.2,74.6,3.1,76.9,4.8z"/>
	<path d="M53.7,50.7c7.5,8.8,13.5,18.8,23.5,25.6C74.1,80,69.9,80.7,66,81c-14.7,1.3-29.5,1-44.3,0.9c-0.3,0-0.7,0-1-0.1
		c-2.6-0.4-6.2,0.1-7.2-2.3c-0.9-2,2-4.2,3.4-6.3c4.6-6.9,9.2-13.8,13.9-20.6c0.7-1.1,1-2.6,3.2-1C40.6,56.6,47.5,56.1,53.7,50.7z"
		/>
	<path d="M83.3,9.3C85,29.7,82.4,50,82.4,71.1c-6.5-3.7-10.3-8.7-14.2-13.4c-3.1-3.6-5.7-7.7-8.8-11.3c-1.6-1.9-1.5-3.4-0.3-5.2
		C66.5,30.3,74.2,19.6,83.3,9.3z"/>
	<path d="M4.4,12.4c6.8,9.4,12.8,17.7,18.8,25.9c4.8,6.5,4.8,6.5,0.2,13.3c-4.5,6.6-9,13.1-13.5,19.7c-0.7,1-1,2.8-2.7,2.5
		c-1.7-0.3-2.1-2-2.3-3.5c-0.9-6.7-2.1-13.4-2.5-20.2C1.6,38,3.4,26,4.4,12.4z"/>
</g>
</svg>
