<svg width="86" height="86" viewBox="0 0 86 86" fill="none" xmlns="http://www.w3.org/2000/svg">
<g clip-path="url(#clip0_3712_12064)">
<path d="M75 0C81.0751 6.44258e-08 86 4.92487 86 11V75C86 81.0751 81.0751 86 75 86H11C4.92487 86 6.44277e-08 81.0751 0 75V11C6.44277e-08 4.92487 4.92487 6.44258e-08 11 0H75ZM44.7607 47.4287L43 48.7051L41.2393 47.4287L10.0049 24.7842C10.0023 24.8558 10 24.9277 10 25V61C10 64.3137 12.6863 67 16 67H70C73.3137 67 76 64.3137 76 61V25C76 24.9277 75.9967 24.8558 75.9941 24.7842L44.7607 47.4287ZM16 19C14.9898 19 14.0384 19.2504 13.2031 19.6914L43 41.2939L72.7959 19.6914C71.9608 19.2507 71.0099 19 70 19H16Z" fill="#DD2A7E"/>
</g>
<defs>
<clipPath id="clip0_3712_12064">
<rect width="86" height="86" fill="white"/>
</clipPath>
</defs>
</svg>
