<?xml version="1.0" encoding="utf-8"?>
<!-- Generator: Adobe Illustrator 23.0.3, SVG Export Plug-In . SVG Version: 6.00 Build 0)  -->
<svg version="1.1" id="Layer_1" xmlns="http://www.w3.org/2000/svg" xmlns:xlink="http://www.w3.org/1999/xlink" x="0px" y="0px"
	 viewBox="0 0 86 86" style="enable-background:new 0 0 86 86;" xml:space="preserve">
<path d="M81.4,45c-0.3-8.6,0.4-19-0.6-29.5C80,8.1,78,6,71,4.8C60.1,2.9,49.1,5,38.2,4c-6.6-0.6-13.1-2.2-19.8-2
	C10.5,2.3,6.5,5.7,5.6,13.5C3.6,29.8,3.4,46.2,3,62.6C2.7,77.7,8.6,83.5,23.6,83.9c15.8,0.5,31.6-0.9,47.3-1.5
	c5.9-0.2,10.5-5.3,10.5-11.1C81.4,63.2,81.4,55,81.4,45z M26.6,43.5c-0.4,7.5-0.9,14.8-1,22.1c-0.1,2.8-0.7,3.6-3.6,3.5
	c-7.6-0.3-7.5-0.1-6.8-7.7c0.8-8.6,1.7-17.1,1.9-25.7c0.1-4.3,3.2-2.9,5.1-3.6c2.2-0.7,3.8,0.1,4,2.8C26.5,37.8,27.1,40.7,26.6,43.5
	z M20.7,26.2c-2.8-0.4-5.1-1.8-5.1-5.6c0-3.9,3.1-7.1,6.8-7c3.4,0.1,5.2,1.8,5.2,5.2C27.6,23.3,25,26.2,20.7,26.2z M66.9,70.9
	c-5.8-0.2-7.3-2.5-6.8-8c0.5-5.9-0.5-11.9-0.4-17.9c0-3.1-1.6-4.8-3.9-5.7c-2.6-0.9-5.5-1.1-7.8,1.4c-3.1,3.4-4.1,7.5-4.3,11.9
	c-0.2,4.3-0.2,8.7,0.2,12.9c0.3,3.2-0.4,4.3-3.8,4.4c-7.8,0.1-7.9,0.3-7.7-7.5c0.2-8.6,0.6-17.2,1-25.8c0.1-1.8-1.3-4.9,2.5-4.6
	c2.8,0.2,7-2.1,7.1,4.1c3.7-3.5,7.2-5.9,12.1-5.5c11.2,0.8,16.8,8.1,16.1,19.5c-0.3,5.4,0.2,10.9,0.5,16.3
	C71.8,70.2,70.7,71,66.9,70.9z"/>
</svg>
