<?xml version="1.0" encoding="utf-8"?>
<!-- Generator: Adobe Illustrator 23.0.3, SVG Export Plug-In . SVG Version: 6.00 Build 0)  -->
<svg version="1.1" id="Layer_1" xmlns="http://www.w3.org/2000/svg" xmlns:xlink="http://www.w3.org/1999/xlink" x="0px" y="0px"
	 viewBox="0 0 100 100" style="enable-background:new 0 0 100 100;" xml:space="preserve">
<style type="text/css">
	.st0{fill:#FFFFFF;}
</style>
<g>
	<path class="st0" d="M8,8c28.7,0,57.3,0,86,0c0,28.7,0,57.3,0,86c-28.7,0-57.3,0-86,0C8,65.3,8,36.7,8,8z M85.6,12.9
		c-3.8-0.5-6.4-1-9-1c-18.1,0-36.2,0.2-54.3,0.4c-1.9,0-3.7,1-5.6,1.5c0.7,1.9,0.9,4.2,2.1,5.8c8.5,11.3,17,22.5,25.8,33.6
		c4.7,5.9,9.1,5.4,13.4-0.7c8-11.4,16.2-22.8,24.2-34.2C83.3,16.9,84,15.4,85.6,12.9z M61.3,59c-6,5.5-10.6,5.6-21.8,0.5
		c-6.4,9.5-12.8,19-20,29.6c3.7,0.8,6.5,1.9,9.2,1.9c14.3,0.1,28.6,0.2,42.9-0.4c4.7-0.2,9.2-2.5,14-3.8C77,76.9,69.3,68.1,61.3,59z
		 M88.9,81.7c3.6-11.3,4.4-59.6,0.9-64.9c-0.7,1.3-1.2,2.3-1.8,3.3c-5.5,7.6-11.1,15-16.4,22.6c-7.2,10.4-7.1,10.5,0.9,20.2
		C77.5,69,82.8,74.8,88.9,81.7z M14.6,83.6c1.2-0.5,1.7-0.6,1.8-0.8c6.3-9.1,12.7-18.2,18.8-27.5c0.7-1.1-0.1-3.8-1.1-5.1
		c-6.1-8.5-12.4-16.9-18.6-25.2c-0.8-1.1-1.8-2-3.4-3.9C9.9,40.8,8.4,59.3,12,77.8C12.4,79.8,13.7,81.7,14.6,83.6z"/>
	<path d="M85.6,12.9c-1.6,2.6-2.4,4-3.3,5.3c-8.1,11.4-16.2,22.8-24.2,34.2c-4.3,6.2-8.7,6.7-13.4,0.7
		c-8.8-11.1-17.3-22.3-25.8-33.6c-1.2-1.6-1.4-3.8-2.1-5.8c1.9-0.5,3.7-1.5,5.6-1.5c18.1-0.2,36.2-0.4,54.3-0.4
		C79.2,11.8,81.8,12.4,85.6,12.9z"/>
	<path d="M61.3,59c7.9,9.1,15.7,17.9,24.4,27.8c-4.8,1.4-9.4,3.6-14,3.8c-14.3,0.6-28.6,0.5-42.9,0.4c-2.8,0-5.6-1.1-9.2-1.9
		c7.2-10.6,13.6-20.2,20-29.6C50.8,64.6,55.3,64.5,61.3,59z"/>
	<path d="M88.9,81.7C82.8,74.8,77.5,69,72.4,62.9c-8-9.6-8-9.8-0.9-20.2c5.3-7.7,10.9-15.1,16.4-22.6c0.7-0.9,1.1-2,1.8-3.3
		C93.3,22.1,92.5,70.4,88.9,81.7z"/>
	<path d="M14.6,83.6c-0.9-1.9-2.3-3.8-2.7-5.8c-3.6-18.5-2.1-37,0.2-56.7c1.7,1.9,2.6,2.8,3.4,3.9c6.3,8.4,12.5,16.7,18.6,25.2
		c1,1.3,1.7,4,1.1,5.1c-6.1,9.3-12.5,18.4-18.8,27.5C16.3,83,15.9,83.1,14.6,83.6z"/>
</g>
</svg>
