<?xml version="1.0" encoding="utf-8"?>
<!-- Generator: Adobe Illustrator 23.0.3, SVG Export Plug-In . SVG Version: 6.00 Build 0)  -->
<svg version="1.1" id="Layer_1" xmlns="http://www.w3.org/2000/svg" xmlns:xlink="http://www.w3.org/1999/xlink" x="0px" y="0px"
	 viewBox="0 0 1213 545" style="enable-background:new 0 0 1213 545;" xml:space="preserve">
<path d="M182,546c-5.4-6.6-10-13.6-12.2-22.1c-4.3-16.4-8.6-32.7-9.4-49.7c-0.7-14.4-1.3-28.8-2-43.1c-0.3-7.4-1.3-14.9-0.9-22.3
	c1-18.8,2.5-37.5,3.8-56.3c0.1-1.8,0-3.7,0.1-5.5c0.3-19.3,0.7-38.5,1-57.8c0-0.8,0.2-1.6,0.3-2c33.6,8.4,67.4,10.5,101.7,9.3
	c34.3-1.3,68.3-3.4,100.6-16.7c0.4,0.3,0.8,0.6,1.2,0.9c-1,3.1-1.7,6.3-3.1,9.2c-6.9,14.4-17.3,25.2-33.3,29.2
	c-3.8,1-7.8,1.3-11.7,1.5c-3.3,0.1-4.3,1.4-4.4,4.5c-0.2,11.3-0.4,22.6-1,33.8c-0.6,9.7-2.2,19.3-2.7,29c-0.3,6.7,0.6,13.5,0.8,20.3
	c0.4,14.9,0.2,29.9,1.2,44.8c0.7,10.9,3,21.8,4.6,32.6c1,7,1.6,14,3.2,20.9c2.4,10.6,8.4,19.1,16.2,27.9c-4.9,0.4-10.1,1.9-14.7,0.9
	c-5.2-1.2-10.4-4-14.7-7.3c-14.1-10.8-18.8-26.6-20.8-43.1c-2.1-17.5-3.3-35.1-4-52.8c-0.5-12.6,0.5-25.2,0.9-37.8
	c0.3-10.3,0.3-20.6,1.1-30.8c0.9-11.8,2.5-23.5,3.8-35.3c0.1-1.3,0-2.6,0-4.2C253.1,322,219,327,185,319.8c0,2.5-0.1,4.8,0,7
	c0.1,1.6,0.6,3.2,0.6,4.9c0.4,18.9,0.6,37.9,1.1,56.8c0.3,10.4,1,20.8,1.5,31.3c18-2.8,36-5.4,53.9-8.6c5.2-0.9,10-3.8,16.2-5.2
	c-2.4,4-4.4,8.3-7.3,11.9c-12.5,15.5-29.8,22.3-48.7,25.7c-4.8,0.9-9.7,1.6-15.2,2.5c-0.4,3.2-1.2,6.8-1.2,10.3
	c-0.1,14.8-0.2,29.7,0,44.5c0.1,7.7,0.5,15.3,1,23c0.5,7.7-0.2,15.1-3.7,22.1C182.7,546,182.3,546,182,546z"/>
<path d="M1,348c2.1-5.5,4-11.1,6.4-16.5c4.1-9.2,9.1-17.8,18.4-23.8c-1.9,18.8-2.2,36.8,2.8,54.5c6.1,21.8,18.4,40.5,29.5,59.4
	C66,395.7,74,369.9,81.9,344c8-25.9,18.2-50.9,33-73.7c0.5,0,1,0.1,1.5,0.1c1.4,4.7,3.4,9.3,4,14.2c1.2,8.5,1.5,17.1,2.2,25.6
	c1.3,14.4,2.6,28.9,3.9,43.3c1.3,13.9,2.5,27.9,4.1,41.8c1.4,12.6,3,25.1,5,37.6c2.7,16.5,5.2,33,9,49.2
	c4.4,18.4,10.1,36.6,15.3,54.8c0.4,1.4,0.9,2.7,1.6,4.8c-35.3-19.9-67.1-43.2-95-73.3c-6.9,27.4-11.9,54.4-39.8,65.5
	c3.6-7.6,8.8-15.9,11.4-24.9c5.1-17.9,8.9-36.2,12.9-54.4c0.4-1.7-1-4.3-2.4-5.7c-12-12.2-21.5-26.3-30.6-40.7
	c-7.4-11.7-12.9-24.3-15.9-38c-0.1-0.5-0.8-0.8-1.2-1.2C1,362,1,355,1,348z M100.5,348.3c-0.5,0-0.9-0.1-1.4-0.1
	c-0.5,1.5-1,3-1.4,4.6c-7.3,26.6-14.5,53.3-22,79.9c-1.4,4.9-0.6,8.3,2.9,12c6.5,7,12.2,14.7,18.9,21.5c5.4,5.5,11.8,10,15.7,13.3
	C109.1,437.9,104.8,393.1,100.5,348.3z"/>
<path d="M1214,520c-4.1,2.9-8.1,6.1-12.4,8.7c-6.1,3.7-12.7,4.4-19.8,2.9c-19.1-4.1-31-16.8-40.9-32.5c-9.6-15.3-14.8-32-17-50.5
	c-19.3,15.2-28.9,34.9-33,58.1c-8-6.3-13-14.6-13.5-24.6c-0.5-11.8,0.3-23.6,0.8-35.4c0.4-9.9,1.2-19.8,2-29.6
	c1.2-13.3,2.7-26.5,3.8-39.8c0.8-9.4,1.3-18.8,2.1-28.1c1.2-13.6,2.9-27.2,3.8-40.8c0.6-10.1,0.1-20.4,0.1-31.1
	c5.3,1.3,7.5,5.9,9.1,9.9c6.2,15.1,10.7,30.8,11.1,47.1c0.4,16.6-0.5,33.3-0.8,50c-0.1,9.9,0,19.8-0.2,29.6
	c-0.1,4.2-0.7,8.5-1.1,14.4c3.4-3.1,5.9-5,8-7.3c9.3-10.3,19.1-20.3,27.7-31.2c9.4-11.9,16.3-25.3,20.3-40.2
	c2.5-9.4,6-18.6,4.9-28.5c-1.5-14.1-3-28.3-14.1-38.9c-0.1-0.1-0.3-0.2-0.4-0.3c-1.4-2-2.9-3.9-4.3-5.9c2.6-0.9,5.1-2.4,7.7-2.4
	c10.4,0,20.8,0,29.9,6.5c13.1,9.4,17.6,22.3,15.7,37.9c-3.4,28.3-15.2,53.3-31.1,76.3c-9,13-19.6,24.8-29.9,36.8
	c-2.5,2.9-3.2,5.1-1.9,8.7c7.3,21.3,18.9,40,35.9,54.8c6.6,5.8,14.4,10.3,21.9,15.1c5,3.3,10.3,6.3,15.5,9.4
	C1214,519.3,1214,519.7,1214,520z"/>
<path d="M1214,60c-4.9,8.2-10.2,10.6-19.9,8.5c-16.5-3.5-32.9-7.1-49.4-10.6c-2.7-0.6-5.5-0.6-8.5-0.9c-0.2,0.9-0.4,1.9-0.5,2.8
	c-0.4,21.3-1.7,42.6-0.8,63.8c1.1,24.3,1.5,48.7,7.7,72.5c4.6,17.9,14.5,41.3,27.2,55.1c-1.9,0.6-3.4,1.4-4.9,1.4
	c-16.6,0.6-29.8-6.2-40-19c-7-8.7-14-17.6-16.1-29.1c-1.1-6.1-2-12.3-2.4-18.6c-0.6-10.9-1.2-21.9-1-32.8c0.3-19.9,1-39.8,2-59.6
	c0.5-11.3,1.9-22.6,2.9-34c0.1-1.4-0.1-2.9-0.2-4.6c-6.3-0.5-12.3-1.2-18.4-1.3c-18.3-0.3-36.6-2.1-54.1-7.3
	c-14.3-4.2-27.9-10.8-36.6-23.8c-3.5-5.2-5.2-11.6-7.6-17.5c-0.6-1.3-0.9-2.8-1.4-4.2c0.3,0,0.7,0,1,0c7.3,4.4,14.1,10.9,22,12.8
	c14.4,3.6,29.4,5.5,44.2,6.2c14.7,0.7,29.4-1.5,44.1-1.6c13.5,0,27.1,1,40.6,1.9c16.3,1.1,32.3,4.2,47.1,11.3
	c9.1,4.3,17.8,9.6,21,20.4c0.2,0.8,1.2,1.3,1.9,1.9C1214,56,1214,58,1214,60z"/>
<path d="M546.6,421.4c8.5,9.8,13.2,23,19.2,35.5c7.6,15.8,14.9,31.9,28.2,44c8.4,7.6,17.7,14,29.2,17.9c-6.1,5.5-12.8,8.7-20.4,9.8
	c-9.2,1.3-18.6,0.9-26.2-5c-6.6-5.1-13.1-10.9-17.8-17.6c-5.4-7.6-9-16.6-12.8-25.2c-3.5-7.9-5.8-16.4-9.8-24.1
	c-3.8-7.2-9-13.7-13.8-20.3c-2.1-2.9-5.3-2.7-8.4-1.4c-4.7,1.9-9.5,3.6-14.1,5.7c-1.4,0.7-3.1,2.6-3.1,4c0.4,15.4,1.4,30.8,1.7,46.1
	c0.1,4.5-0.9,9.2-2.3,13.5c-1.4,4-5.4,6.2-9.4,5.9c-5.1-0.4-8.9-4-10.3-8.8c-1.3-4.7-2-9.7-2.1-14.6c-0.3-12.7-0.3-25.3,0-38
	c0.1-5.2-1.4-7.6-6.3-9.9c-10-4.7-17.7-12.1-20.5-23.4c-0.2-0.6-0.3-1.3-0.3-1.9c0-0.8,0.1-1.6,0.1-2.6c8.6-3.6,17.4-0.3,26.3-0.5
	c0.5-6.1,1.2-12,1.5-17.8c0.3-6.5,0-13,0.1-19.5c0.3-13.6,0.5-27.2,1.1-40.8c0.3-6.5,1.3-13,2.1-20.2c-28.9,5-57.3,10.4-86.7,3.6
	c-1.4,25.9-2.8,51.4-4.3,77.9c18.9,0.5,37.4,1.1,56.2,1.6c-6.4,15.8-31.7,25.9-56.7,23.2c-0.5,5.9-1.2,11.8-1.5,17.7
	c-0.5,12.2-0.8,24.4-0.9,36.6c0,1.7,1.5,3.8,2.9,5c6.4,5.4,14.2,4.9,21.5,3c8.2-2.1,16-5.7,23.9-8.7c7.2-2.7,14.3-5.8,21.5-8.3
	c4.9-1.7,6.4-0.2,6.1,5c-1.5,22.9-14.4,40.2-37.9,44.7c-10.6,2.1-21.3-0.3-30.7-5.6c-9.7-5.5-18.7-12.2-27.8-18.7
	c-4.6-3.3-5.9-8.7-5.9-14.1c-0.2-12-0.6-24,0.1-36c0.7-13.8,2.6-27.5,3.8-41.3c0.8-9.2,1.5-18.4,2.1-27.6c1.1-19.5,2-39,3.1-58.5
	c0.4-6.9,1.5-13.8,1.9-20.6c0.2-3.3,1.9-4,4.6-3.6c7.5,0.9,15.1,1.4,22.4,3c19.7,4.4,39,3.6,58.7-1.2c13.6-3.3,27.8-4.6,41.7-6.9
	c16.2-2.7,31.4,1.2,46,7.5c9.4,4,16.7,11.1,22.9,19c7.5,9.5,10.2,20.9,12.3,32.6c3.3,18.7-1.5,35.7-10.9,51.5
	C561,402.8,553.6,411.7,546.6,421.4z M497.2,410.6c4.4-0.5,7.7-0.3,10.4-1.4c8.9-3.5,19.2-5.8,26.2-11.7
	c14.3-12.1,22.4-28.2,21.5-47.7c-0.6-13.3-9.2-29.7-24-34c-9.2-2.7-18.7-4.2-28.2-6c-3.4-0.6-5.7,0.7-5.5,4.9
	c0.5,14.8,0.8,29.5,1,44.3c0.1,8.2,0.1,16.3-0.1,24.5C498.3,392.2,497.7,400.9,497.2,410.6z"/>
<path d="M853.9,79.7c5.6-12.3-0.4-23.6-4-35c-1-3.2-5.5-5.7-8.9-7.7c-8-4.9-16.1-9.7-26-9.4c-16.7,0.5-32.3,5.4-45.8,14.7
	c-10.2,7.1-17.1,17.7-22,29.4c-4.5,10.6-7.4,21.5-6.5,33.1c1.1,13.7,6,26.3,14.4,37.1c4.9,6.3,10.6,12.6,17.2,16.7
	c6.5,4,14.5,6.6,22.1,7.6c21.8,2.6,40.5-5,56.4-19.9c5.1-4.7,10.4-9.3,14.6-14.7c6.6-8.4,12.6-17.2,18.3-26.2
	c4.4-7,7.8-14.7,11.7-22.1c0.7-1.4,1.6-2.7,2.4-4c0.5,0,1,0,1.5,0c0.5,1.9,1.1,3.7,1.4,5.6c1.3,9.6,2.5,19.2,3.7,28.8
	c0.5,4.2,1.1,8.5,1.3,12.8c0.5,16.2,1.6,32.5,0.8,48.7c-1.1,21.3-7,41.7-19.4,59.2c-7.5,10.6-18.8,17.5-32.5,19.5
	c-12.6,1.8-24.1-1.1-34.6-7.8c-8.5-5.5-16.6-11.6-24.6-17.8c-2.8-2.2-4.9-5.3-7.2-8.2c-0.6-0.7-0.6-2.2-0.3-3.1
	c0.1-0.4,1.7-0.6,2.7-0.5c13.7,1,27.3,2.5,41,2.9c16.3,0.5,29.3-6.2,36.7-21c8-16.1,15.8-32.4,19-50.3c0.1-0.4-0.2-1-1.4-2.5
	c-0.2,0.7-0.2,1.6-0.7,2.2c-5.6,7.7-11,15.6-17.1,22.9c-3.1,3.7-7.5,6.4-11.3,9.6c-9.2,7.7-19.9,12.8-31.2,16.6
	c-4.1,1.4-8.7,1.6-13.1,2c-19.8,1.9-39-0.5-55.7-11.9c-9.2-6.3-18.2-13.2-24.7-23c-5.4-8.2-10.5-16.4-13.6-25.5
	c-2.2-6.6-3.7-13.7-4.1-20.6c-0.5-9.9-0.3-20,0.9-29.8c1.8-13.5,8.2-25.3,14.8-37.1c6.2-11.2,15.4-19.8,25.8-26
	c12.8-7.6,26.8-13.8,42.2-15.2c8.9-0.8,17.8-2.1,26.6-1.8c11.3,0.4,22.7,0.8,33.3,5.7c11.8,5.5,19.9,13.6,23.8,26.5
	c3.8,12.5-2,21.6-8.5,30.7C869,76.6,863.1,81,853.9,79.7z"/>
<path d="M942.1,296.9c-13.4-1.2-25.2,4.9-38.1,7.1c4.3-9.5,11.6-15.5,20.6-18.4c8.8-2.8,18.2-3.8,27.4-5.2c6.8-1,13.8-1.9,20.6-1.7
	c7,0.2,13.9,1.9,20.9,3c14.4,2.3,25.8,10.4,36.5,19.5c9.5,8,13.3,19.2,15.6,31.1c2.9,14.9,0.7,29.1-6.5,42.2
	c-4.2,7.6-9.7,14.5-15.1,21.3c-6.3,8-13.2,15.7-19.8,23.5c-0.8-0.6-1.7-1.1-2.5-1.7c2.2,1.9,4.3,3.8,6.5,5.6
	c14.7,11.4,24.8,26.4,33.5,42.4c7.3,13.3,14.6,26.5,25.3,37.6c7,7.2,15.7,10,25.1,11c5.9,0.7,12,0.1,18.5,0.1
	c-0.3,6.3-3.4,11.1-7.8,13.4c-17.7,9.4-36.3,13.5-55.2,3.9c-12.9-6.6-18.9-19-24.3-31.8c-6.6-15.8-11.5-32.5-22.9-45.9
	c-7.2-8.4-15.3-15.5-25.4-20.2c-5.7-2.7-12.6,0.5-12.9,6.5c-0.7,12.3-0.3,24.7-0.6,37.1c-0.3,12.5,2.2,24.5,5.2,36.5
	c1.4,5.7,3.6,11.1,5.6,17.2c-5.6,1.4-11.1,1.3-15.7-2.6c-11.5-9.6-18.4-21.9-19.3-37.1c-0.2-2.9,0.1-5.7,0-8.6
	c-0.7-15.8-1.5-31.7-2.2-46.6c-6-2.1-11.9-3.5-16.8-6.3c-2.4-1.3-4.8-5.9-4.2-8.2c0.8-3.1,4.2-6,7.1-8c2-1.3,5.1-1.3,7.7-1.2
	c4.8,0.2,6.5-1.4,6.7-6.6c0.6-19.8,1.8-39.6,2.9-59.5c0.5-9.9,1.2-19.8,2-29.6c0.4-4.4,1.2-8.8,1.7-13.2
	C942.3,301.5,942.1,299.4,942.1,296.9z M963.4,296.6c0,37.2,0,73.7,0,110.6c1.2,0,2.5,0.3,3.7,0c14-3.9,25.4-12.1,35.6-22
	c7.4-7.3,11.1-16.8,14-26.7c5.4-18.3-1.8-40.2-17.7-49.8C988.4,302.2,976.6,298.8,963.4,296.6z"/>
<path d="M355.3,3.3c6.1,7.9,11.7,15.2,17.3,22.4c5.6,7.1,11.2,14.1,17,20.9c11,13.2,22.5,25.9,33.2,39.4
	c14.1,17.8,27.8,35.9,41.3,54.2c9.5,13,18.3,26.5,27.9,40.6c1.4-4.3,2.9-7.9,3.8-11.6c4.9-19.3,10.3-38.6,14.2-58.1
	c3.2-15.9,3.4-32.2-0.9-47.9c-2.9-10.5-9.1-19.3-20.5-22.7c-5.9-1.7-11.9-3.6-18-4.6c-3.1-0.5-6.4,0.8-9.7,1.2
	c-1.4,0.2-2.8,0.4-4.3,0.7c1.4-10.3,6.2-18.3,14.9-23.1c5.9-3.2,12.7-6.6,19.2-6.9c6.3-0.3,13.3,2.4,19.1,5.4
	c14.6,7.6,20,21.9,23.6,36.6c4.1,16.3,4.2,33,2.3,49.7c-1.3,11.6-1.5,23.4-3.3,34.9c-2,12.6-5,25-8.4,37.3
	c-4.4,16.2-9.2,32.4-14.5,48.4c-2.5,7.5-5.9,15-13.5,21.4c-30-50.5-62.5-98.8-97.3-145.9c0,6.3-0.2,11.9,0,17.5
	c0.5,13.2,1,26.5,2,39.6c1.3,16.4,1.5,32.8,4.5,49.1c2.4,13.3,7.8,24.8,14.5,36.1c-13,9.3-26.3,6.9-34.6-6.3
	c-6.7-10.6-8.4-21.9-8.8-33.9c-0.3-9.4-1-18.9-0.9-28.3c0.1-16.8,0.6-33.5,0.9-50.3c0.3-16.6,0.8-33.2,0.9-49.8
	c0-3.3-0.9-7.1-2.8-9.7c-10.7-14.4-14.7-31.3-19-48.2c-0.2-0.6-0.1-1.3-0.1-2C355.3,7.7,355.3,6,355.3,3.3z"/>
<path d="M51.7,135.9c0,3.4,0,5,0,6.6c-0.4,12.4,2.9,23.8,8.4,35c4.5,9.2,9.4,17.8,18,23.6c12.4,8.4,25.9,11.8,40.7,7.4
	c5.1-1.5,10.4-2.8,15.1-5.2c9.7-4.8,17.8-20.3,8.8-30.6c-6-6.9-12.5-13.6-19.5-19.4c-9.2-7.7-19-14.8-28.9-21.5
	c-11.8-8-24.2-15.2-36.1-23.2C43,98.4,34.3,84,34.5,65.5c0.1-17.2,8.1-30.7,21.7-41.2c10.4-8.1,22.9-10.1,35.2-13
	c15.1-3.6,29.8-2.2,44.4,2.2c20.5,6.3,33.6,20.5,39.6,40.6c4.2,13.9-1.7,27.3-14.8,37.8c3.4-11.9,2.4-23.1-3.5-33.8
	c-4.4-7.9-11.4-13.1-18.5-18.3c-11.1-8.2-23.6-9.6-36.6-7.1c-6.4,1.2-13,2.6-18.7,5.5C65.8,47,62.6,61.8,75.2,77
	c13.7,16.6,32.7,26.7,50.6,38c12.6,8,25.1,16.4,36.7,25.8c15.9,13.1,21.9,30.9,18.9,51c-1.5,10.4-7.3,19-15.4,26.3
	c-11.9,10.8-26.3,15.3-41.6,17.4c-9.4,1.3-19,3.4-28.4,2.8c-22.9-1.4-44.8-6.7-61.1-24.6c-17.4-19.3-18.7-54.3,6-71.7
	C43.9,140,47.2,138.4,51.7,135.9z"/>
<path d="M700.1,303.9c-9.5-1.8-18.9-3.5-28.3-5.3c-0.1-0.4-0.1-0.8-0.2-1.2c7.9-1.7,15.8-3.8,23.8-4.9c7-1,14.2-0.9,21.3-1.1
	c18.2-0.5,34.5,5.2,48.7,16c14.4,10.9,25.6,24.9,32.3,41.6c9,22.7,15.7,46.4,12.7,71.2c-2.4,20.4-6.5,40.6-17.8,58.3
	c-5,7.7-10.4,15.3-16.5,22.1c-13.6,15.1-31.3,24.2-50.8,28.4c-16.1,3.5-32.6,3.3-46.9-7.3c-0.5-0.4-1.1-0.7-1.6-1.1
	c-4.7-3.9-4.5-5.1,1.2-7.6c5.8-2.6,11.6-5.4,17.5-7.7c4.4-1.7,3.9-5,3.9-8.5c-0.1-7.5,0-15.1,0-22.6c0-1,0.1-2,0.1-3
	c0.3-41.9,0.6-83.8,1-125.8c0.1-5.8,0.9-11.5,0.9-17.3C701.2,320.2,700.5,312.3,700.1,303.9z M725.7,493.2
	c11.8-6.8,23.3-11.1,31.2-21c1.6-2.1,3.3-4.2,5.1-6.1c7.7-8.1,13.8-17.5,17.1-28c6.2-19.6,5.7-39.7,0.6-59.4
	c-4.2-16.1-11.1-31.3-22.1-44.1c-8.8-10.3-19.7-17.7-33.5-20.9c-0.1,1.7-0.3,3-0.3,4.3c0.3,22.4,0.6,44.8,1,67.3
	c0.3,18.3,0.8,36.5,1,54.8c0.2,15.5,0,31,0,46.5C725.7,488.3,725.7,490.1,725.7,493.2z"/>
<path d="M229,19.1c-6,16.7-9.9,32.9-11.3,49.6c-0.7,8.4-2,16.8-1.8,25.1c0.4,13.5,1.6,27,2.8,40.4c0.6,7.2,1.4,14.4,3.1,21.4
	c3.8,15.1,10.4,29,22.3,39.3c7.9,6.8,17.2,12.4,28.1,11.1c6.1-0.7,12-4.1,17.7-6.9c4.2-2.1,8.4-4.6,11.7-7.9
	c8.2-8.2,12.2-18.6,13.7-29.9c1.2-8.6,2.9-17.3,2.8-25.9c0-9.6-1.4-19.3-2.9-28.9c-1.6-11-3.2-22.1-6.1-32.8
	c-4.4-16.1-11.3-31.1-23.5-43.1c-0.6-0.6-1.1-1.2-2.5-2.8c5.2-1.6,9.7-3.8,14.3-4.3c25.5-2.7,39.7,12.2,42.2,35.6
	c1.8,16.7,2.3,33.6,3.1,50.4c0.5,10.4,1.2,20.9,0.9,31.3c-0.5,20.8-4,41.1-12.5,60.4c-5.9,13.3-15.9,22.4-27.9,29.8
	c-10.4,6.4-21.9,9.4-33.9,8.6c-22.8-1.6-41.1-11.8-54.8-30.3c-10.8-14.5-14.9-31.5-18.9-48.5c-2-8.6-2.5-17.6-3.1-26.4
	c-0.7-9.6-1.7-19.3-0.9-28.8c1.5-17.6,0.9-35.6,7.7-52.5c4.9-12.2,11.4-23.1,22.5-30.6C223.7,21.1,226.1,20.4,229,19.1z"/>
<path d="M1092.8,253.6c-4.9-0.7-8.8-1.3-12.6-1.8c-12.2-1.8-19.9-10.5-27.7-18.7c-10-10.6-12.8-24.2-14.1-38.1
	c-1-10.2-1.4-20.4-2-30.6c-0.5-7.5-0.8-15.1-1.3-23.2c0,0-1-0.4-2.1-0.3c-11.2,0.9-22.3,2.1-33.5,2.8c-9,0.6-17.5,2.5-25,7.8
	c-5.9,4.1-8.7,10.2-9.8,17c-0.9,5.9-0.7,11.9-1.2,17.8c-1.4,16.2-2.9,32.4-9.5,47.6c-0.6,1.4-1.3,2.7-2,4c-0.2,0.4-0.5,0.8-1.1,1.8
	c-9.1-17.7-18-34.6-21.7-53.7c-2.7-14.4-0.2-28,6-41.3c2.3-4.9,3.4-10.6,3.7-16c0.6-9.6,0.2-19.3,0.2-29c0-11.7,0.5-23.4-0.1-35.1
	c-0.8-15.6-2.3-31.1-8.9-45.6c-1.3-2.9-3.3-5.5-5-8.3c0.3-0.4,0.6-0.7,0.9-1.1c4.4,4.1,9.1,7.8,13.1,12.3
	c10.2,11.5,17.7,24.5,20.4,39.8c0.8,4.7,1.5,9.4,1.8,14.1c0.5,8.9,0.7,17.9,1.1,26.8c0.3,6.8,0.9,13.5,1.4,21.2
	c11.1-1.9,21.9-3.8,32.9-5.5c8.2-1.3,16.5-2.4,24.8-3.7c1.8-0.3,3.5-0.8,5.2-1.4c8.5-2.8,8.2-2.9,8.5-11.7c0.2-7.1,0.6-14.2,2-21.1
	c1.3-6.1,3.3-12.5,10.8-14.4c7.5-1.9,13.7,1,19.1,5.7c8.8,7.8,9.8,17.8,7.3,28.6c-2.5,10.7-8.9,18.9-16.5,26.5
	c-0.8,0.8-1.5,2.1-1.5,3.2c-0.3,15,0.3,30.1,4.2,44.7c3.1,11.3,6.6,22.6,10.8,33.5c2.6,6.8,6.9,13,10.6,19.3
	C1087.1,235.4,1091.1,243.7,1092.8,253.6z"/>
<path d="M921,541c-8.3-8.4-17.2-16.3-24.8-25.2c-9.5-11.1-20.3-20.6-32.1-29.1c-6.2-4.5-12.8-8.6-19.6-13.2
	c-4.8,13.1-6.1,26.9-15.4,37.6c-9.1,10.5-20.6,16.9-33.7,23.6c10.8-17,13.4-35.4,17.9-53.1c4.6-18.1,9.4-36.1,13.5-54.3
	c6.1-27.3,11.8-54.7,17.6-82.1c3.3-15.7,6.5-31.4,10-47c1-4.4,2.8-8.7,4.6-12.9c0.6-1.5,2.3-2.8,3.8-3.5c0.5-0.2,2.2,1.6,3,2.7
	c6.3,8.7,9.4,18.9,11.8,29.1c8.9,38.6,17.5,77.2,26.1,115.9c4.5,20.5,8.8,41,12.9,61.5c2.7,13.3,4.9,26.7,7.1,40.2
	c0.5,2.9-0.2,6.1-0.3,9.1C922.5,540.5,921.7,540.8,921,541z M882.1,468.6c-6.4-41-12.8-82-19.2-122.9c-0.3,1.1-1,2.6-1.2,4.2
	c-1.4,11.1-2.5,22.2-4.1,33.2c-3.1,21.1-6.6,42.1-9.8,63.1c-0.5,3.2,0,5.5,3.9,6.7c4.8,1.4,9.5,3.6,14,5.9
	C871.5,462,877,465.5,882.1,468.6z"/>
<path d="M558.6,237c0-17.7-0.7-34.8,0.5-52c0.7-9.9-0.5-19.9-0.5-29.8c0-10.8,0.3-21.6,0.5-32.3c0-1.2,0.2-2.3,0.3-3.5
	c1-18.6,1.5-37.3,3.2-55.9c1.2-13.3,1.6-26.4-3.3-38.9c-1.9-4.8-4.9-9.1-7.6-13.9c7.8-1.3,14.1,2.2,19.8,7
	c9.6,8,13.8,18.9,16.2,30.8c3.6,18.3,1.7,36.7,1.8,55.1c0.1,13.5-1.4,27.1-1.8,40.6c-0.5,18.1-0.7,36.2-1,54.3c0,1.8,0,3.6,0,5.7
	c5.9-0.7,11.3-1.8,16.6-1.7c11.2,0.3,22.4,1.5,33.6,1.8c12.3,0.3,23.9-3,35.4-7.3c13.3-4.9,26.9-8.9,40.8-13.5
	c1.6,11.2-0.9,20.5-6.4,28.3c-5.3,7.4-11.6,14.8-19.1,19.8c-5.7,3.9-13.8,5-21,5.9c-11.6,1.5-22.9-1.6-34.2-4.1
	c-14.2-3.2-28.3-7.2-43.2-6.9c-9.7,0.2-18.1,2.8-25.6,8.6c-0.6,0.5-1.4,0.9-2.1,1.2C561.2,236.6,560.7,236.6,558.6,237z"/>
<path d="M649.3,10.8c5.8-1.9,13.9,1.1,18.7,5.9c11.4,11.4,12.9,25.8,13.5,40.5c1,23,1.1,46.1,2.2,69.1c0.4,9,2.4,17.9,4,26.7
	c1.2,6.6,3.1,13,4.6,19.5c0.8,3.2-2.2,5.6-7.1,6.2c-15.6,1.8-25.6-7.9-29.8-21.6c-2.4-7.8-3.4-16.1-4-24.2c-0.7-9.3-0.6-18.7-0.1-28
	c1-16.8,2.9-33.5,3.7-50.3c0.4-9.5-0.7-19.2-1.2-28.7c-0.1-1.3-0.2-2.6-0.6-3.9C652.1,18.5,650.8,14.9,649.3,10.8z"/>
</svg>
